<svg width="167" height="48" viewBox="0 0 167 48" fill="none" xmlns="http://www.w3.org/2000/svg">
<path fill-rule="evenodd" clip-rule="evenodd" d="M4.04667 38.1023V34.0556H22.2567V38.1023H4.04667ZM18.3887 17.8689H7.91292L13.1517 25.1192L18.3887 17.8689ZM26.3033 13.8223L13.1517 32.0323L0 13.8223H26.3033Z" fill="white"/>
<path fill-rule="evenodd" clip-rule="evenodd" d="M4.04667 38.1023V34.0556H22.2567V38.1023H4.04667ZM18.3887 17.8689H7.91292L13.1517 25.1192L18.3887 17.8689ZM26.3033 13.8223L13.1517 32.0323L0 13.8223H26.3033Z" fill="black" fill-opacity="0.2"/>
<path d="M42.3536 34.0568V27.5619H36.1251V34.0568H32.3701V17.8701H36.1251V24.2049H42.3536V17.8668H46.1085V34.0534L42.3536 34.0568Z" fill="white"/>
<path d="M50.8464 34.0569V17.8702H61.103V21.3116H54.6014V24.2049H60.5213V27.4743H54.6014V30.6324H61.103V34.0569H50.8464Z" fill="white"/>
<path d="M65.5764 34.0569V17.8702H69.3297V30.6358H75.8245V34.0602L65.5764 34.0569Z" fill="white"/>
<path d="M78.9757 34.0569V17.8702H82.7357V30.6358H89.2289V34.0602L78.9757 34.0569Z" fill="white"/>
<path d="M99.821 34.3216C94.8065 34.3216 91.6045 30.7218 91.6045 25.972C91.6045 21.2222 94.9616 17.6005 99.9761 17.6005C104.991 17.6005 108.193 21.202 108.193 25.972C108.193 30.742 104.814 34.3216 99.821 34.3216ZM99.8834 20.9592C97.3222 20.9592 95.599 23.0567 95.599 25.972C95.599 28.8873 97.3222 30.9865 99.8834 30.9865C102.445 30.9865 104.169 28.8654 104.169 25.972C104.169 23.0786 102.45 20.9592 99.8834 20.9592Z" fill="white"/>
<path d="M116.306 34.3216C114.473 34.3216 112.26 33.5932 110.852 32.6642L111.889 29.2633C113.192 30.2126 114.893 30.8314 116.417 30.8314C117.743 30.8314 118.25 30.2126 118.25 29.4184C118.25 28.5753 117.83 28.0038 115.357 27.0106C112.507 25.8624 111.518 24.2049 111.518 22.2609C111.518 19.9003 113.438 17.6005 117.215 17.6005C118.982 17.6005 120.795 18.2193 121.744 18.86L120.791 22.217C119.862 21.5763 118.362 20.8917 117.212 20.8917C115.843 20.8917 115.291 21.5325 115.291 22.1951C115.291 23.2557 116.107 23.6098 118.141 24.4697C121.166 25.7511 122.071 27.2096 122.071 29.2852C122.071 31.87 120.194 34.3216 116.306 34.3216Z" fill="white"/>
<path d="M126.097 34.0569V17.8702H129.852V34.0569H126.097Z" fill="white"/>
<path d="M148.572 24.9569V32.6878C146.715 33.7895 144.589 34.3551 142.431 34.3216C137.683 34.3216 133.928 30.9207 133.928 25.972C133.928 21.0233 137.727 17.6005 142.63 17.6005C144.751 17.6005 146.451 18.1535 148.062 18.9932L146.494 22.0181C145.379 21.431 144.139 21.1205 142.879 21.1126C139.654 21.1126 137.932 23.1225 137.932 25.972C137.932 29.0643 140.008 30.9865 142.653 30.9865C143.845 30.9865 144.442 30.8533 145.039 30.5447V28.1589H141.79V24.9553L148.572 24.9569Z" fill="white"/>
<path d="M166.404 34.3655L156.641 25.5977V34.0569H152.886V17.646L153.392 17.5566L163.023 26.2587V17.8669H166.778V34.2997L166.404 34.3655Z" fill="white"/>
</svg>
