<svg width="75" height="20" viewBox="0 0 75 20" fill="none" xmlns="http://www.w3.org/2000/svg">
<g clip-path="url(#clip0_5889_407518)">
<path d="M0.819435 19.5656L3.53248 0.130859H17.6433L17.1442 3.69574L7.08031 3.6526L6.40204 8.58304H14.3586L13.8629 12.1048H5.90639L4.86291 19.5656H0.819435ZM14.9302 19.5656L16.9128 5.32217H20.852L18.8693 19.5656H14.9302ZM17.1442 3.69574L17.6433 0.130859H21.5824L21.0868 3.69574H17.1442ZM20.8192 19.5656L22.8018 5.32217H26.454L26.0887 8.13956L25.9322 7.40912C26.3844 6.55695 26.9844 5.94825 27.7322 5.58304C28.4974 5.20043 29.3583 5.00912 30.3148 5.00912C31.4105 5.00912 32.3409 5.26999 33.1061 5.79173C33.8713 6.29608 34.4279 6.98304 34.7757 7.8526C35.1409 8.72217 35.2453 9.69608 35.0887 10.7743L33.8627 19.5656H29.9496L31.0974 11.2439C31.2192 10.4265 31.0713 9.77434 30.654 9.28738C30.2366 8.78304 29.6453 8.53086 28.88 8.53086C28.3757 8.53086 27.9061 8.6439 27.4713 8.86999C27.054 9.09608 26.7061 9.40912 26.4279 9.80912C26.1496 10.2091 25.967 10.6874 25.88 11.2439L24.7322 19.5656H20.8192ZM42.54 19.7222C40.7835 19.7222 39.4791 19.2439 38.627 18.2874C37.7748 17.3135 37.4617 15.9917 37.6878 14.3222L38.4704 8.71347H36.0704L36.54 5.32217H36.5922C37.3226 5.32217 37.9226 5.12217 38.3922 4.72217C38.8791 4.32217 39.1748 3.75695 39.2791 3.02651L39.4096 2.08738H43.3748L42.9052 5.32217H47.6742L47.2022 8.71347H42.4357L41.653 14.27C41.5835 14.7569 41.6009 15.1569 41.7052 15.47C41.8096 15.7656 42.0096 15.983 42.3052 16.1222C42.6183 16.2613 43.0357 16.3309 43.5574 16.3309C43.7139 16.3309 43.8617 16.3309 44.0009 16.3309C44.1573 16.3135 44.3486 16.2874 44.5747 16.2526L44.2877 19.5656C44.0268 19.6352 43.7313 19.6787 43.4009 19.6961C43.0878 19.7135 42.8009 19.7222 42.54 19.7222ZM45.6916 19.5656L47.6742 5.32217H51.3525L50.8829 8.73956L50.6742 8.2439C51.1612 7.0439 51.7873 6.23521 52.5525 5.81782C53.3351 5.38304 54.222 5.16564 55.2134 5.16564L56.8238 5.21748L56.3735 8.55695H54.3525C53.396 8.55695 52.5786 8.8613 51.9003 9.46999C51.2394 10.0787 50.822 10.9743 50.6481 12.1569L49.6307 19.5656H45.6916ZM54.8412 19.5656L56.8238 5.21748H60.7629L58.7803 19.5656H54.8412ZM57.0064 4.0439L57.5542 0.130859H61.4934L60.9455 4.0439H57.0064ZM65.4521 19.8787C64.4955 19.8787 63.6607 19.7309 62.9477 19.4352C62.2347 19.1396 61.6781 18.7048 61.2781 18.1309C60.8955 17.5396 60.7042 16.8265 60.7042 15.9917C60.7042 15.0526 60.939 14.2613 61.4086 13.6178C61.8955 12.9569 62.5477 12.4265 63.3651 12.0265C64.1999 11.6265 65.139 11.3483 66.1825 11.1917L70.6694 10.4874L70.3825 13.3569L66.7303 14.0352C66.1912 14.1396 65.7216 14.3309 65.3216 14.6091C64.939 14.87 64.7477 15.2526 64.7477 15.7569C64.7477 16.1917 64.9042 16.5135 65.2173 16.7222C65.5303 16.9135 65.9303 17.0091 66.4173 17.0091C67.0607 17.0091 67.626 16.8613 68.1129 16.5656C68.6173 16.27 69.026 15.8787 69.339 15.3917C69.6694 14.9048 69.8694 14.3743 69.939 13.8004L70.4347 10.1743C70.4868 9.77434 70.4173 9.43521 70.226 9.15695C70.0347 8.87869 69.7651 8.6613 69.4173 8.50477C69.0694 8.34825 68.6868 8.26999 68.2694 8.26999C67.5216 8.26999 66.852 8.47869 66.2607 8.89608C65.6694 9.29608 65.226 9.80912 64.9303 10.4352L61.9042 8.79173C62.2694 7.99173 62.7825 7.31347 63.4434 6.75695C64.1042 6.20043 64.8694 5.77434 65.739 5.47869C66.6086 5.16564 67.5303 5.00912 68.5042 5.00912C69.7042 5.00912 70.7651 5.23521 71.6868 5.68738C72.626 6.13956 73.339 6.76564 73.826 7.56564C74.3303 8.36564 74.5042 9.29608 74.3477 10.3569L73.0694 19.5656H69.3912L69.7042 17.27L70.7477 17.1917C70.2607 17.8178 69.7477 18.3309 69.2086 18.7309C68.6694 19.1309 68.0868 19.4178 67.4607 19.5917C66.852 19.783 66.1825 19.8787 65.4521 19.8787Z" fill="white"/>
</g>
<defs>
<clipPath id="clip0_5889_407518">
<rect width="74.3478" height="20" fill="white"/>
</clipPath>
</defs>
</svg>
